<svg width="676" height="434" viewBox="0 0 676 434" fill="none" xmlns="http://www.w3.org/2000/svg">
<g clip-path="url(#clip0_1063_307)">
<path d="M655.657 433.311C660.9 433.319 665.935 431.258 669.67 427.574C673.404 423.89 675.538 418.881 675.608 413.632C676.438 359.358 680.804 279.295 578.699 257.141C496.046 239.28 545.072 92.2524 322.57 101.841C162.834 108.657 205.209 243.447 81.0882 254.681C-1.56527 262.076 -2.26944 366.722 0.907133 414.666C1.23706 419.722 3.4763 424.462 7.17019 427.925C10.8641 431.388 15.7357 433.313 20.7959 433.311H655.657Z" fill="#B5DFEA"/>
<path opacity="0.55" d="M578.698 257.188C496.045 239.28 545.07 92.2524 322.569 101.841C284.576 103.408 258.037 112.323 237.96 125.045C244.72 124.152 251.902 123.478 259.554 123.212C482.055 113.702 433.077 260.713 515.699 278.637C616.708 300.572 613.5 379.147 612.624 433.389H655.656C660.912 433.397 665.959 431.326 669.696 427.625C673.433 423.924 675.558 418.894 675.607 413.632C676.437 359.405 680.803 279.342 578.698 257.188Z" fill="#90CEDD"/>
<path d="M479.976 95.574L218.651 65.0373C215.997 64.7271 213.308 64.9435 210.738 65.6742C208.167 66.4048 205.766 67.6353 203.67 69.2954C201.575 70.9555 199.827 73.0128 198.525 75.3495C197.224 77.6863 196.396 80.2568 196.087 82.9143L176.667 250.106C176.358 252.764 176.574 255.456 177.304 258.03C178.033 260.604 179.262 263.008 180.92 265.106C182.578 267.204 184.633 268.955 186.967 270.258C189.3 271.56 191.868 272.39 194.522 272.699L455.846 303.236C458.5 303.546 461.189 303.33 463.76 302.599C466.33 301.868 468.732 300.638 470.827 298.978C472.923 297.318 474.671 295.261 475.972 292.924C477.273 290.587 478.102 288.016 478.411 285.359L497.908 118.089C498.511 112.722 496.96 107.336 493.597 103.114C490.235 98.892 485.335 96.1799 479.976 95.574Z" fill="#D7F0F9"/>
<path d="M495.904 134.65L497.829 118.089C498.433 112.734 496.893 107.359 493.546 103.139C490.2 98.9193 485.32 96.199 479.975 95.574L218.651 65.0373C215.996 64.7271 213.307 64.9435 210.737 65.6742C208.166 66.4048 205.765 67.6353 203.669 69.2954C201.574 70.9555 199.826 73.0128 198.525 75.3495C197.223 77.6863 196.395 80.2568 196.086 82.9143L194.146 99.4753L495.904 134.65Z" fill="#23999A"/>
<path d="M236.506 200.674L269.617 142.249C270.654 140.417 272.208 138.932 274.085 137.982C275.961 137.031 278.076 136.657 280.164 136.906C281.561 137.065 282.912 137.499 284.141 138.183C285.369 138.867 286.451 139.787 287.323 140.891C288.196 141.994 288.842 143.259 289.225 144.614C289.607 145.968 289.719 147.385 289.553 148.782L282.668 207.881H282.965C283.945 207.99 284.892 208.293 285.753 208.772C286.614 209.252 287.37 209.899 287.978 210.676C288.586 211.452 289.033 212.342 289.292 213.293C289.552 214.245 289.619 215.239 289.491 216.217C289.259 218.172 288.263 219.957 286.72 221.178C285.177 222.4 283.214 222.96 281.26 222.734H280.962L279.711 233.498C279.59 234.544 279.265 235.555 278.754 236.475C278.242 237.395 277.555 238.204 276.731 238.858C275.907 239.511 274.962 239.995 273.951 240.283C272.94 240.57 271.882 240.655 270.838 240.533C269.794 240.413 268.784 240.087 267.865 239.575C266.947 239.063 266.138 238.375 265.485 237.55C264.833 236.725 264.349 235.779 264.062 234.767C263.775 233.754 263.69 232.695 263.812 231.649L265.064 220.886L241.232 218.097C240.262 217.986 239.324 217.685 238.471 217.21C237.618 216.736 236.867 216.097 236.261 215.332C235.655 214.566 235.206 213.688 234.939 212.749C234.672 211.809 234.593 210.826 234.706 209.855L235.348 204.434C235.462 203.113 235.857 201.831 236.506 200.674ZM266.863 205.045L271.135 168.398C271.141 168.344 271.129 168.29 271.099 168.244C271.07 168.199 271.026 168.165 270.974 168.148C270.922 168.132 270.867 168.133 270.816 168.153C270.766 168.173 270.724 168.21 270.697 168.257L251.137 202.821C251.059 202.961 251.017 203.119 251.014 203.28C251.011 203.441 251.047 203.6 251.12 203.744C251.192 203.888 251.299 204.011 251.43 204.105C251.561 204.198 251.713 204.257 251.872 204.278L265.784 205.844C266.031 205.873 266.28 205.806 266.48 205.657C266.681 205.509 266.818 205.291 266.863 205.045Z" fill="#5CC6C3"/>
<path d="M382.644 217.783L415.755 159.358C416.797 157.53 418.352 156.049 420.227 155.099C422.102 154.15 424.215 153.772 426.302 154.015C429.119 154.345 431.691 155.781 433.451 158.008C435.212 160.235 436.017 163.07 435.691 165.891L428.759 224.959H429.056C430.022 225.072 430.957 225.374 431.806 225.849C432.655 226.323 433.403 226.961 434.006 227.725C434.609 228.489 435.056 229.364 435.321 230.301C435.586 231.238 435.664 232.218 435.55 233.185C435.44 234.153 435.139 235.091 434.666 235.943C434.193 236.795 433.557 237.545 432.793 238.151C432.03 238.756 431.155 239.205 430.219 239.471C429.282 239.738 428.302 239.816 427.335 239.703H427.038L425.786 250.467C425.535 252.577 424.458 254.501 422.792 255.817C421.125 257.133 419.006 257.733 416.898 257.486C415.854 257.365 414.844 257.04 413.927 256.528C413.009 256.015 412.201 255.327 411.55 254.502C410.899 253.676 410.417 252.73 410.131 251.718C409.846 250.705 409.763 249.647 409.887 248.602L411.139 237.838L387.338 235.018C386.37 234.905 385.434 234.603 384.583 234.127C383.732 233.652 382.982 233.013 382.378 232.248C381.773 231.483 381.325 230.606 381.06 229.667C380.794 228.728 380.715 227.746 380.829 226.777L381.455 221.356C381.618 220.099 382.022 218.886 382.644 217.783ZM413.017 222.155L417.289 185.508C417.295 185.454 417.282 185.399 417.253 185.354C417.223 185.308 417.179 185.274 417.128 185.257C417.076 185.241 417.02 185.243 416.97 185.263C416.919 185.282 416.877 185.319 416.851 185.367L397.291 219.93C397.209 220.07 397.163 220.228 397.158 220.391C397.153 220.553 397.189 220.714 397.262 220.859C397.335 221.004 397.443 221.128 397.577 221.221C397.71 221.313 397.865 221.37 398.026 221.387L411.922 222.954C412.176 222.985 412.433 222.916 412.638 222.761C412.842 222.606 412.978 222.377 413.017 222.123V222.155Z" fill="#5CC6C3"/>
<path d="M316.952 166.299C318.877 149.801 328.657 141.371 344.555 143.236C360.454 145.1 368.028 155.535 366.119 172.049L359.859 225.711C357.919 242.225 348.139 250.639 332.24 248.79C316.342 246.941 308.768 236.475 310.677 219.961L316.952 166.299ZM326.763 222.891C325.903 230.271 328.813 233.436 333.977 234.047C339.141 234.658 342.693 232.229 343.554 224.85L350.048 169.213C350.909 161.833 347.998 158.653 342.834 158.057C337.67 157.462 334.118 159.875 333.257 167.239L326.763 222.891Z" fill="#5CC6C3"/>
<path d="M225.035 88.0691C224.913 89.1477 224.474 90.1658 223.774 90.9945C223.073 91.8231 222.143 92.425 221.101 92.7239C220.059 93.0227 218.951 93.0052 217.919 92.6734C216.887 92.3416 215.976 91.7105 215.302 90.8601C214.629 90.0097 214.222 88.9781 214.134 87.8962C214.046 86.8142 214.281 85.7305 214.809 84.7823C215.337 83.8342 216.134 83.0641 217.099 82.5698C218.064 82.0755 219.154 81.8792 220.231 82.0056C221.67 82.1746 222.983 82.9076 223.884 84.044C224.784 85.1804 225.198 86.6278 225.035 88.0691Z" fill="white"/>
<path d="M251.232 91.14C251.104 92.2133 250.661 93.2246 249.959 94.046C249.257 94.8675 248.328 95.4623 247.289 95.7553C246.25 96.0483 245.147 96.0263 244.121 95.6922C243.094 95.3581 242.189 94.7268 241.521 93.878C240.852 93.0293 240.45 92.0012 240.365 90.9236C240.279 89.8461 240.515 88.7674 241.042 87.8239C241.569 86.8803 242.363 86.1143 243.324 85.6225C244.286 85.1307 245.371 84.9353 246.443 85.0608C247.157 85.1444 247.847 85.368 248.474 85.7189C249.101 86.0698 249.652 86.5411 250.097 87.1058C250.542 87.6705 250.871 88.3175 251.066 89.0097C251.26 89.702 251.317 90.4259 251.232 91.14Z" fill="#79C9E8"/>
<path d="M278.396 94.3049C278.271 95.3788 277.831 96.3916 277.132 97.2153C276.433 98.0391 275.506 98.6368 274.467 98.933C273.429 99.2291 272.326 99.2105 271.298 98.8793C270.27 98.5481 269.364 97.9193 268.693 97.0724C268.021 96.2254 267.616 95.1983 267.528 94.1208C267.44 93.0434 267.673 91.9639 268.197 91.0188C268.721 90.0738 269.513 89.3055 270.474 88.8112C271.434 88.3168 272.519 88.1186 273.592 88.2415C275.031 88.4105 276.344 89.1434 277.244 90.2798C278.145 91.4162 278.559 92.8635 278.396 94.3049Z" fill="#FCA238"/>
<path d="M173.303 284.826C171.136 295.237 170.149 305.859 170.361 316.491C170.893 330.827 169.188 425.085 169.188 425.085H180.689C180.689 425.085 197.057 351.274 197.667 345.445C198.277 339.617 206.555 281.332 206.555 281.332L173.303 284.826Z" fill="#1E7878"/>
<path d="M180.955 280.533C180.955 280.533 183.6 300.666 188.091 315.002C192.582 329.339 214.692 425.116 214.692 425.116H226.194C226.194 425.116 224.081 351.305 223.283 345.477C222.485 339.648 216.664 281.348 216.664 281.348L180.955 280.533Z" fill="#23999A"/>
<path d="M215.646 425.085V433.123H237.554C237.824 433.124 238.087 433.037 238.304 432.876C238.521 432.715 238.68 432.488 238.758 432.229C238.835 431.969 238.827 431.692 238.734 431.438C238.641 431.184 238.469 430.967 238.242 430.819C235.113 428.689 229.918 425.743 225.145 425.085H215.646Z" fill="#0582C1"/>
<path d="M169.766 425.085V433.123H191.673C191.945 433.127 192.21 433.043 192.43 432.883C192.649 432.723 192.811 432.496 192.89 432.236C192.97 431.976 192.963 431.697 192.87 431.442C192.778 431.186 192.605 430.968 192.377 430.819C189.169 428.689 184.037 425.743 179.28 425.085H169.766Z" fill="#0582C1"/>
<path d="M209.263 186.855C209.263 186.855 216.789 175.402 208.152 174.321C201.517 173.459 198.763 175.433 198.763 175.433C198.763 175.433 191.126 174.603 186.948 178.222C184.085 180.713 173.554 200 190.563 206.973C207.573 213.945 203.958 196.005 203.958 196.005L209.263 186.855Z" fill="#00668E"/>
<path d="M208.12 174.289C201.486 173.428 198.731 175.402 198.731 175.402C198.731 175.402 191.095 174.571 186.917 178.191C184.053 180.682 173.522 199.969 190.532 206.941C198.528 210.231 201.971 208.022 203.363 204.748C187.23 209.307 185.477 189.832 188.138 184.285C190.798 178.739 197.323 181.262 197.323 181.262C199.874 174.853 208.136 175.558 211.547 176.044C211.132 175.526 210.612 175.101 210.022 174.799C209.431 174.496 208.783 174.323 208.12 174.289Z" fill="#05556D"/>
<path d="M198.732 192.433C198.732 192.433 196.51 190.192 194.835 192.433C193.161 194.673 194.272 199.687 197.057 199.969C197.057 199.969 196.228 207.223 190.642 206.941V212.817H203.755V208.383C203.755 208.383 211.845 205.045 211.579 198.34C211.444 194.432 210.688 190.572 209.341 186.902C206.525 189.886 202.788 191.834 198.732 192.433Z" fill="#F98D3D"/>
<path d="M200.671 210.216C201.97 210.764 201.751 211.579 201.798 212.817H203.691V208.383C203.691 208.383 200.562 209.401 195.867 206.816C197.299 208.172 198.916 209.317 200.671 210.216Z" fill="#ED701B"/>
<path d="M203.425 181.747C203.425 181.747 196.634 179.037 195.836 181.074C195.32 182.405 196.634 183.549 198.449 184.709L196.884 184.959C196.802 184.97 196.725 185.006 196.663 185.061C196.6 185.115 196.556 185.188 196.534 185.268C196.512 185.348 196.514 185.433 196.541 185.512C196.567 185.591 196.616 185.66 196.681 185.711C198.019 186.279 199.473 186.516 200.922 186.401L203.425 181.747Z" fill="#F98D3D"/>
<path d="M251.935 198.778C238.994 189.174 203.614 181.544 203.614 181.544L200.703 186.871C200.703 186.871 232.813 199.405 230.685 201.191C229.449 202.288 213.754 209.479 208.433 211.908C207.288 212.425 206.043 212.682 204.787 212.66L188.529 212.566C184.56 212.373 180.601 213.104 176.962 214.703C173.324 216.301 170.105 218.723 167.56 221.779C159.314 231.289 145.293 253.302 145.293 253.302L168.922 288.085L171.535 291.924V292.206L173.866 292.441C181.456 293.146 205.789 295.073 218.667 292.331L219.027 292.253L218.417 235.19C230.861 225.467 242.229 214.437 252.326 202.288C252.544 202.038 252.708 201.745 252.807 201.428C252.905 201.111 252.938 200.777 252.901 200.447C252.864 200.117 252.759 199.798 252.593 199.511C252.427 199.224 252.203 198.974 251.935 198.778ZM172.599 276.601L170.283 271.556L162.944 255.496L175.134 241.834L172.943 271.806L172.599 276.601Z" fill="#FCA238"/>
<path d="M170.282 271.556L172.598 276.601L171.472 291.814L171.456 291.861L168.843 288.022L170.282 271.556Z" fill="#EFAA3A"/>
<path d="M212.815 233.075C210.624 234.642 211.25 248.743 210.64 257.595C209.732 272.37 208.856 285.155 209.498 293.412C212.541 293.247 215.569 292.865 218.558 292.268L218.918 292.19L218.307 235.128C230.752 225.404 242.12 214.374 252.217 202.225C252.432 201.975 252.594 201.683 252.691 201.368C252.788 201.053 252.82 200.721 252.783 200.393C252.746 200.065 252.642 199.748 252.478 199.462C252.313 199.176 252.091 198.927 251.826 198.731C239.874 211.324 226.818 222.818 212.815 233.075Z" fill="#FB8904"/>
<path d="M223.298 345.461C222.719 341.246 219.527 309.722 217.805 292.488L209.527 293.412C209.527 293.412 221.592 392.637 222.374 425.101H226.208C226.208 425.101 224.096 351.289 223.298 345.461Z" fill="#1E7878"/>
<path d="M105.624 397.165C105.624 397.165 102.088 393.859 104.466 381.293C106.845 368.728 112.87 356.648 109.912 343.001C106.955 329.354 83.7483 294.979 83.6701 292.691C83.5919 290.404 76.5032 332.692 88.5054 349.394C100.508 366.095 101.963 371.846 101.431 380.604C100.899 389.362 101.54 396.428 102.87 398.465L105.624 397.165Z" fill="#5CC6C3"/>
<path d="M103.434 371.893C102.041 377.502 101.196 391.556 103.434 394.924C103.653 395.238 103.95 395.065 104.325 394.47C103.637 392.151 103.199 388.077 104.482 381.293C106.86 368.759 112.885 356.648 109.927 343.001C106.97 329.354 83.7638 294.979 83.6855 292.691C83.6855 292.691 87.1751 321.332 98.9581 341.058C107.377 355.175 104.842 366.283 103.434 371.893Z" fill="#23999A"/>
<path d="M109.865 396.303C109.865 396.303 103.042 379.256 114.559 364.497C126.076 349.738 144.588 330.78 144.964 323.275C144.964 323.275 149.658 358.92 134.667 369.01C119.676 379.1 109.129 380.729 111.727 396.24L109.865 396.303Z" fill="#5CC6C3"/>
<path d="M126.093 361.928C109.318 374.149 107.957 388.234 110.554 394.752C110.642 394.994 110.788 395.211 110.979 395.383C111.17 395.555 111.4 395.677 111.65 395.739C109.396 380.761 119.865 379.053 134.715 369.104C149.565 359.155 145.012 323.369 145.012 323.369C145.012 323.369 142.868 349.613 126.093 361.928Z" fill="#23999A"/>
<path d="M98.5833 396.679C99.9192 390.506 100.263 384.159 99.6005 377.878C98.4425 368.132 88.2712 362.649 78.7728 352.355C73.8906 347.059 72.5135 319.061 75.471 316.46C75.471 316.46 58.6962 336.828 61.2938 351.712C63.8914 366.597 91.307 376.327 93.8889 383.518C95.4059 387.774 96.1942 392.255 96.2205 396.773L98.5833 396.679Z" fill="#5CC6C3"/>
<path d="M69.8688 324.497C64.3293 339.523 70.0096 357.729 88.4275 369.041C101.979 377.361 97.6599 394.674 97.6599 394.674L99.8819 387.842C100.108 384.531 100.035 381.207 99.6628 377.909C98.5049 368.164 88.3336 362.68 78.8352 352.386C74.1407 347.278 72.5759 321.05 75.2361 316.867C73.3194 319.318 71.528 321.865 69.8688 324.497Z" fill="#23999A"/>
<path d="M75.2363 316.868L75.5341 316.491C75.4161 316.601 75.3157 316.728 75.2363 316.868Z" fill="#23999A"/>
<path d="M113.369 395.551C113.369 395.551 117.297 380.949 127.03 378.99C136.763 377.032 147.905 362.633 148.515 359.813C148.515 359.813 146.872 386.996 113.369 395.551Z" fill="#5CC6C3"/>
<path d="M126.469 383.863C120.507 386.84 118.034 390.851 117.158 394.501C146.984 384.897 148.454 359.86 148.454 359.86C148.077 360.883 147.55 361.844 146.89 362.711C144.073 367.803 136.984 378.551 126.469 383.863Z" fill="#23999A"/>
<path d="M134.401 390.13H83.5605L89.6007 428.156C89.8104 429.561 90.5161 430.844 91.5899 431.773C92.6637 432.701 94.0343 433.213 95.4531 433.217H122.509C123.912 433.201 125.264 432.689 126.326 431.772C127.389 430.854 128.093 429.59 128.314 428.203L134.401 390.13Z" fill="#FCA238"/>
<path d="M133.416 396.475L134.401 390.177H83.5605L84.562 396.475H133.416Z" fill="#FF9F50"/>
<path d="M122.055 390.13L116.046 428.203C115.826 429.599 115.116 430.871 114.043 431.79C112.97 432.709 111.605 433.215 110.193 433.217H122.508C123.911 433.201 125.264 432.689 126.326 431.772C127.388 430.854 128.092 429.59 128.314 428.203L134.401 390.13H122.055Z" fill="#FB8904"/>
<path d="M485.124 322.366H255.315V369.151H485.124V322.366Z" fill="#FCA238"/>
<path d="M485.124 322.366H255.315V333.726H485.124V322.366Z" fill="#FB8904"/>
<path d="M275.298 322.366H296.267L290.649 333.726H269.665L275.298 322.366Z" fill="#F77E2D"/>
<path d="M322.555 322.366H343.524L337.906 333.726H316.938L322.555 322.366Z" fill="#F77E2D"/>
<path d="M369.811 322.366H390.78L385.162 333.726H364.193L369.811 322.366Z" fill="#F77E2D"/>
<path d="M417.07 322.366H438.023L432.405 333.726H411.437L417.07 322.366Z" fill="#F77E2D"/>
<path d="M485.123 322.366V322.68L479.646 333.726H458.693L464.327 322.366H485.123Z" fill="#F77E2D"/>
<path d="M300.115 369.151H283.919V433.123H300.115V369.151Z" fill="#79C9E8"/>
<path d="M300.115 369.151H296.438V433.123H300.115V369.151Z" fill="#49B4D6"/>
<path d="M457.77 369.151H441.574V433.123H457.77V369.151Z" fill="#79C9E8"/>
<path d="M457.771 369.151H452.982V433.123H457.771V369.151Z" fill="#49B4D6"/>
<path d="M300.115 369.104H283.919V377.157H300.115V369.104Z" fill="#49B4D6"/>
<path d="M457.77 369.104H441.574V377.157H457.77V369.104Z" fill="#49B4D6"/>
<path d="M300.115 315.049H283.919V322.319H300.115V315.049Z" fill="#79C9E8"/>
<path d="M300.115 315.049H296.438V322.319H300.115V315.049Z" fill="#49B4D6"/>
<path d="M457.77 315.049H441.574V322.319H457.77V315.049Z" fill="#79C9E8"/>
<path d="M457.771 315.049H452.982V322.319H457.771V315.049Z" fill="#49B4D6"/>
<path d="M300.115 321.411H283.919V322.319H300.115V321.411Z" fill="#49B4D6"/>
<path d="M457.77 321.411H441.574V322.319H457.77V321.411Z" fill="#49B4D6"/>
<path d="M296.267 322.366L273.092 369.151H255.315V362.696L275.298 322.366H296.267Z" fill="#23999A"/>
<path d="M322.554 322.366L299.379 369.151H320.347L343.522 322.366H322.554Z" fill="#23999A"/>
<path d="M390.781 322.366L367.606 369.151H346.638L369.813 322.366H390.781Z" fill="#23999A"/>
<path d="M438.022 322.366L414.863 369.151H393.895L417.069 322.366H438.022Z" fill="#23999A"/>
<path d="M464.327 322.366L441.152 369.151H462.105L485.124 322.68L464.327 322.366Z" fill="#23999A"/>
<path d="M296.267 322.366L290.649 333.726H269.665L275.298 322.366H296.267Z" fill="#1E7878"/>
<path d="M343.524 322.366L337.906 333.726H316.938L322.555 322.366H343.524Z" fill="#1E7878"/>
<path d="M390.78 322.366L385.162 333.726H364.193L369.811 322.366H390.78Z" fill="#1E7878"/>
<path d="M438.023 322.366L432.405 333.726H411.437L417.07 322.366H438.023Z" fill="#1E7878"/>
<path d="M485.123 322.68L479.646 333.726H458.693L464.327 322.366L485.123 322.68Z" fill="#1E7878"/>
<path d="M293.884 319.193C301.758 317.911 307.102 310.481 305.821 302.597C304.54 294.714 297.119 289.363 289.246 290.646C281.373 291.928 276.029 299.358 277.309 307.242C278.59 315.125 286.011 320.476 293.884 319.193Z" fill="#FCA238"/>
<path d="M298.143 304.897C298.143 303.598 297.758 302.328 297.037 301.248C296.316 300.168 295.291 299.327 294.092 298.83C292.893 298.334 291.574 298.205 290.302 298.459C289.03 298.714 287.861 299.341 286.945 300.26C286.029 301.18 285.406 302.351 285.154 303.626C284.903 304.9 285.035 306.221 285.534 307.42C286.033 308.619 286.875 309.643 287.956 310.363C289.036 311.082 290.305 311.465 291.603 311.462C292.463 311.462 293.315 311.292 294.109 310.962C294.904 310.631 295.626 310.148 296.233 309.538C296.841 308.928 297.322 308.204 297.65 307.408C297.978 306.611 298.145 305.758 298.143 304.897Z" fill="#1E7878"/>
<path d="M451.868 319.207C459.741 317.925 465.085 310.494 463.804 302.611C462.524 294.728 455.103 289.377 447.229 290.66C439.356 291.942 434.012 299.372 435.293 307.255C436.574 315.139 443.995 320.49 451.868 319.207Z" fill="#FCA238"/>
<path d="M456.127 304.897C456.127 303.598 455.742 302.328 455.021 301.248C454.3 300.168 453.275 299.327 452.076 298.83C450.877 298.334 449.558 298.205 448.285 298.459C447.013 298.714 445.845 299.341 444.928 300.26C444.012 301.18 443.389 302.351 443.138 303.626C442.887 304.9 443.019 306.221 443.517 307.42C444.016 308.619 444.859 309.643 445.939 310.363C447.019 311.082 448.288 311.465 449.586 311.462C450.446 311.462 451.298 311.292 452.093 310.962C452.887 310.631 453.609 310.148 454.217 309.538C454.824 308.928 455.306 308.204 455.633 307.408C455.961 306.611 456.129 305.758 456.127 304.897Z" fill="#1E7878"/>
<path d="M572.189 428.156H499.003L510.129 400.988L514.635 390.02L515.872 387.028L517.906 382.124L518.313 381.137L522.819 370.169L523.649 368.179L531.629 348.782C531.946 348.004 532.488 347.338 533.185 346.869C533.881 346.4 534.702 346.15 535.541 346.15C536.381 346.15 537.201 346.4 537.898 346.869C538.595 347.338 539.136 348.004 539.453 348.782L547.434 368.179L548.248 370.169L552.754 381.137L553.177 382.124L555.195 387.028L556.432 390.02L560.938 400.988L572.189 428.156Z" fill="#FCA238"/>
<path d="M503.807 416.515L499.003 428.156H572.205L567.401 416.515H503.807Z" fill="#FB8904"/>
<path d="M576.978 421.199H493.15V433.06H576.978V421.199Z" fill="#79C9E8"/>
<path d="M576.978 421.199H558.873V433.06H576.978V421.199Z" fill="#49B4D6"/>
<g style="mix-blend-mode:multiply" opacity="0.29">
<path d="M569.311 421.199H558.968L550.643 401.003L546.136 390.036L544.9 387.028L542.882 382.139L542.475 381.137L537.968 370.169L537.139 368.179L530.473 351.838L531.74 348.704C532.057 347.926 532.599 347.26 533.295 346.791C533.992 346.322 534.813 346.072 535.652 346.072C536.492 346.072 537.312 346.322 538.009 346.791C538.706 347.26 539.247 347.926 539.564 348.704L547.545 368.101L548.358 370.091L552.865 381.058L553.288 382.061L555.306 386.949L556.542 389.958L561.049 400.925L569.311 421.199Z" fill="#F98D2B"/>
</g>
<path d="M552.818 381.121H518.376L522.883 370.153H548.311L552.818 381.121Z" fill="#23999A"/>
<path d="M561.002 400.972V400.988H510.192V400.972L514.699 390.005H556.495L561.002 400.972Z" fill="#23999A"/>
<path d="M552.818 381.121H542.474L537.968 370.153H548.311L552.818 381.121Z" fill="#1E7878"/>
<path d="M561.001 400.972V400.988H550.642V400.972L546.136 390.005H556.495L561.001 400.972Z" fill="#1E7878"/>
<path d="M105.656 161.708C108.309 161.735 110.882 160.797 112.896 159.068C114.911 157.339 116.23 154.937 116.609 152.307C116.748 151.321 116.816 150.326 116.813 149.33C116.813 143.513 114.505 137.934 110.396 133.82C106.288 129.706 100.716 127.395 94.9053 127.395C94.4046 127.395 93.9195 127.395 93.4344 127.395C92.8992 121.447 90.0971 115.934 85.6097 112C81.1223 108.065 75.2941 106.012 69.3349 106.266C63.3756 106.52 57.7429 109.062 53.6056 113.364C49.4684 117.666 47.1444 123.398 47.1159 129.37C47.1159 129.934 47.1159 130.498 47.1159 131.062C43.7098 129.164 39.8812 128.157 35.9835 128.131C32.0858 128.106 28.2446 129.064 24.8143 130.917C21.3839 132.771 18.4751 135.459 16.3561 138.735C14.2371 142.01 12.9763 145.767 12.69 149.66C12.6977 149.753 12.6977 149.848 12.69 149.942C12.6112 151.446 12.8397 152.95 13.3613 154.363C13.8829 155.775 14.6867 157.066 15.7237 158.158C16.7606 159.249 18.0089 160.116 19.3921 160.708C20.7754 161.3 22.2647 161.603 23.7689 161.598L105.656 161.708Z" fill="#D7F0F9"/>
<path d="M626.943 178.88C644.156 178.88 645.173 152.856 627.913 152.01H626.504C623.502 152.005 620.519 152.476 617.663 153.404C616.504 146.389 612.867 140.023 607.415 135.466C601.963 130.91 595.058 128.465 587.957 128.577C580.855 128.689 574.031 131.35 568.724 136.077C563.418 140.803 559.983 147.28 559.045 154.329C553.239 151.567 546.651 150.929 540.424 152.527C525.324 156.412 528.485 178.911 544.086 178.911L626.943 178.88Z" fill="#D7F0F9"/>
<path d="M419.51 50.6386C436.723 50.6386 437.74 24.6299 420.496 23.7838H419.072C416.076 23.7819 413.099 24.2471 410.246 25.1626C409.096 18.14 405.463 11.7654 400.01 7.20187C394.556 2.63837 387.646 0.190257 380.54 0.304255C373.433 0.418252 366.605 3.08676 361.3 7.82284C355.995 12.5589 352.568 19.0468 351.644 26.1027C345.842 23.328 339.25 22.6847 333.022 24.2852C317.922 28.1865 321.098 50.6699 336.684 50.6699L419.51 50.6386Z" fill="#D7F0F9"/>
<path d="M144.588 98.7233C167.446 98.7233 185.977 80.1693 185.977 57.2817C185.977 34.3942 167.446 15.8402 144.588 15.8402C121.729 15.8402 103.198 34.3942 103.198 57.2817C103.198 80.1693 121.729 98.7233 144.588 98.7233Z" fill="#FCA238"/>
<path d="M144.933 15.8402C152.381 20.7361 158.054 27.9073 161.108 36.2885C164.162 44.6697 164.434 53.8137 161.884 62.3622C159.334 70.9106 154.098 78.4073 146.953 83.7386C139.809 89.0699 131.137 91.9513 122.227 91.9548H121.898C127.279 95.486 133.407 97.7129 139.797 98.4588C146.187 99.2046 152.662 98.4488 158.709 96.2514C164.756 94.0539 170.209 90.4753 174.634 85.7997C179.058 81.124 182.334 75.48 184.199 69.3157C186.065 63.1513 186.47 56.6364 185.382 50.2879C184.295 43.9395 181.744 37.9323 177.932 32.7433C174.121 27.5543 169.154 23.3262 163.426 20.3948C157.697 17.4634 151.365 15.9093 144.933 15.8559V15.8402Z" fill="#FB8904"/>
</g>
<defs>
<clipPath id="clip0_1063_307">
<rect width="676" height="434" fill="white"/>
</clipPath>
</defs>
</svg>
