<svg width="48" height="48" viewBox="0 0 48 48" fill="none" xmlns="http://www.w3.org/2000/svg">
<path d="M12.7019 39.632C14.5753 42.8944 19.6165 45.0319 22.2148 45.8852C22.3748 45.9377 22.3279 46.2383 22.1598 46.2287C13.4818 45.7287 3.24003 41.3162 3.23999 30.3092C3.23996 21.336 15.1772 10.7441 7.87663 2.08601C7.78426 1.97646 7.89045 1.80492 8.02543 1.85305C14.8112 4.27315 15.9552 8.95453 15.3805 14.8293C14.7543 21.23 6.64906 29.0917 12.7019 39.632Z" fill="url(#paint0_linear_1065_1063)"/>
<path d="M34.3269 19.8637C38.0986 21.6184 40.7195 24.1899 41.4006 25.1613C50.6352 37.0441 39.2266 45.2489 26.5783 46.2183C26.4188 46.2306 26.3712 46.0054 26.52 45.9464C36.2618 42.0858 42.6402 32.9359 34.1595 20.0726C34.0827 19.956 34.2003 19.8049 34.3269 19.8637Z" fill="url(#paint1_linear_1065_1063)"/>
<path d="M19.2418 13.8202L18.72 9.40234H29.1559L28.2862 12.4635L23.9031 19.4904C26.7139 19.9357 29.3414 21.2529 30.3039 21.8559C33.6712 23.8596 31.7069 26.9811 30.3039 28.2914C29.8029 28.9314 24.6221 32.3846 22.0943 34.0311L21.7464 33.6833L24.6684 30.9351C27.7297 28.1522 28.3558 26.2506 28.2862 25.6476C29.1768 22.4473 23.88 20.5804 21.1202 20.047L25.6077 11.6982L19.2418 13.8202Z" fill="#23999A"/>
<path d="M25.5729 37.127H22.7204V39.562H20.2854L20.2854 42.4145H22.7204V44.78H25.5729V42.4145H27.9384V39.562H25.5729V37.127Z" fill="#23999A"/>
<defs>
<linearGradient id="paint0_linear_1065_1063" x1="13.415" y1="1.68002" x2="13.415" y2="46.2762" gradientUnits="userSpaceOnUse">
<stop stop-color="#84D7F1"/>
<stop offset="1" stop-color="#23999A"/>
</linearGradient>
<linearGradient id="paint1_linear_1065_1063" x1="35.2011" y1="19.6651" x2="35.2011" y2="46.2767" gradientUnits="userSpaceOnUse">
<stop stop-color="#84D7F1"/>
<stop offset="1" stop-color="#23999A"/>
</linearGradient>
</defs>
</svg>
