<svg width="11" height="13" viewBox="0 0 11 13" fill="none" xmlns="http://www.w3.org/2000/svg">
<path d="M5.5 13C5.5 13 10.375 8.38013 10.375 4.875C10.375 3.58207 9.86139 2.34209 8.94715 1.42785C8.03291 0.513615 6.79293 0 5.5 0C4.20707 0 2.96709 0.513615 2.05285 1.42785C1.13861 2.34209 0.625 3.58207 0.625 4.875C0.625 8.38013 5.5 13 5.5 13ZM5.5 7.3125C4.85353 7.3125 4.23355 7.05569 3.77643 6.59857C3.31931 6.14145 3.0625 5.52147 3.0625 4.875C3.0625 4.22853 3.31931 3.60855 3.77643 3.15143C4.23355 2.69431 4.85353 2.4375 5.5 2.4375C6.14647 2.4375 6.76645 2.69431 7.22357 3.15143C7.68069 3.60855 7.9375 4.22853 7.9375 4.875C7.9375 5.52147 7.68069 6.14145 7.22357 6.59857C6.76645 7.05569 6.14647 7.3125 5.5 7.3125Z" fill="#BCC0C0"/>
</svg>
