<svg width="46" height="60" viewBox="0 0 46 60" fill="none" xmlns="http://www.w3.org/2000/svg">
<path d="M23 60C23 60 45.5 38.6775 45.5 22.5C45.5 16.5326 43.1295 10.8097 38.9099 6.5901C34.6903 2.37053 28.9674 0 23 0C17.0326 0 11.3097 2.37053 7.0901 6.5901C2.87053 10.8097 0.5 16.5326 0.5 22.5C0.5 38.6775 23 60 23 60ZM23 33.75C20.0163 33.75 17.1548 32.5647 15.045 30.455C12.9353 28.3452 11.75 25.4837 11.75 22.5C11.75 19.5163 12.9353 16.6548 15.045 14.545C17.1548 12.4353 20.0163 11.25 23 11.25C25.9837 11.25 28.8452 12.4353 30.955 14.545C33.0647 16.6548 34.25 19.5163 34.25 22.5C34.25 25.4837 33.0647 28.3452 30.955 30.455C28.8452 32.5647 25.9837 33.75 23 33.75Z" fill="#23999A"/>
</svg>
