<svg width="86" height="82" viewBox="0 0 86 82" fill="none" xmlns="http://www.w3.org/2000/svg">
<path d="M31.1838 0.160156C27.6877 0.921875 25.1877 2.875 23.2736 6.35156C21.3986 9.75 20.0119 10.8047 16.633 11.4102C14.2306 11.8594 12.922 12.3477 11.3205 13.4023C9.73844 14.4375 8.66422 15.6484 7.76579 17.3672C6.75016 19.3594 6.55485 20.2773 6.6525 22.9336C6.82829 28.4414 6.80875 28.8906 6.22282 30.0234C5.92985 30.5898 4.93375 31.8594 4.01579 32.8555C1.3986 35.6875 0.246254 38.5781 0.50016 41.6836C0.734535 44.6523 1.73063 46.6641 4.36735 49.5352C5.16813 50.4141 6.04704 51.5469 6.30094 52.0742C6.78922 53.0898 6.82829 53.6562 6.6525 59.1641C6.59391 61.1758 6.63297 61.8008 6.94547 62.6797C8.44938 67.1328 11.3791 69.5156 16.5939 70.5703C20.2463 71.3125 21.34 72.1328 23.2541 75.5898C25.5978 79.8672 28.8986 81.918 33.3322 81.918C35.4806 81.8984 36.3205 81.6836 39.0158 80.4336C42.2189 78.9297 43.6252 78.9297 46.7502 80.3555C49.797 81.7422 50.4416 81.8984 52.7658 81.8984C54.2502 81.918 55.1095 81.8203 55.8908 81.5469C58.9963 80.5117 61.008 78.7539 62.7267 75.6484C64.6213 72.2109 65.9298 71.1953 69.3673 70.5898C71.8088 70.1406 73.4494 69.5156 74.9728 68.4219C76.3791 67.4062 77.5509 66.0391 78.3322 64.457C79.2502 62.6016 79.4259 61.6445 79.3478 59.0664C79.172 53.5391 79.1916 53.1094 79.797 51.957C80.09 51.3711 80.9494 50.2578 81.6916 49.4766C84.4455 46.5664 85.4806 44.2617 85.4806 41C85.4806 37.7383 84.5041 35.5703 81.7111 32.5625C79.2697 29.9258 78.8791 28.6172 79.3283 24.6328C79.6603 21.7617 79.4259 19.8477 78.4884 17.8555C76.7306 14.2031 73.9767 12.25 69.3673 11.4102C66.0666 10.8242 64.6408 9.78906 63.0197 6.82031C61.0275 3.1875 59.2306 1.60547 55.8908 0.453125C55.0705 0.179688 54.2892 0.0820312 52.6681 0.101562C50.3439 0.121094 49.9338 0.21875 46.3205 1.85938C44.8166 2.54297 44.5041 2.62109 43.0002 2.62109C41.4181 2.62109 41.2228 2.5625 39.2892 1.66406C38.1564 1.15625 36.8478 0.609375 36.3595 0.453125C35.2853 0.101562 32.2384 -0.0546875 31.1838 0.160156ZM55.9298 4.78906C57.3361 5.49219 58.4103 6.70312 59.5041 8.79297C60.2072 10.1211 60.8517 11.0195 61.8478 12.0156C63.6642 13.8711 65.2267 14.6523 68.3908 15.2969C71.1838 15.8828 72.258 16.3516 73.4103 17.4844C75.2267 19.3203 75.6759 21.1758 75.2267 25.1016C74.7384 29.2812 75.6564 31.9375 78.6838 35.1797C80.9494 37.6016 81.3791 38.5391 81.3791 41C81.3791 43.4219 80.9103 44.4766 78.8595 46.6055C77.1798 48.3828 76.2228 49.8672 75.5783 51.7227C75.1877 52.8359 75.1291 53.3047 75.2072 55.2578C75.383 61.0391 75.3634 61.5078 74.7775 62.6406C74.0939 63.9492 72.8439 65.1992 71.6916 65.7656C71.1838 66 69.7189 66.4297 68.3908 66.7031C65.1486 67.3672 63.8009 68.0312 61.9455 69.9062C60.8322 71 60.2267 71.8203 59.5041 73.207C58.3908 75.3164 57.3361 76.4883 55.8713 77.2695C54.9142 77.7773 54.6408 77.8164 52.7658 77.8164H50.715L48.5666 76.8008C46.008 75.5898 45.1877 75.375 43.0002 75.375C40.8127 75.375 39.9923 75.5898 37.4338 76.8008L35.2853 77.8164H33.2345C31.3595 77.8164 31.0861 77.7773 30.1486 77.2695C28.6252 76.4688 27.6095 75.3359 26.4963 73.2266C25.7931 71.8789 25.1486 71 24.1525 69.9844C22.3361 68.1484 20.7736 67.3477 17.6681 66.7031C16.3791 66.4492 14.9142 66.0391 14.4064 65.8047C13.1955 65.2188 11.9064 63.9492 11.2228 62.6602C10.6369 61.5273 10.5978 60.8828 10.7931 55.3555C10.9103 51.8594 10.0509 49.75 7.2775 46.7812C5.05094 44.3984 4.62125 43.4414 4.62125 41C4.62125 38.5781 5.05094 37.6016 7.23844 35.2578C9.01579 33.3438 9.7775 32.1523 10.422 30.2578C10.7931 29.1641 10.8517 28.6758 10.7931 26.7422C10.6173 20.5117 10.6173 20.5117 11.34 19.1641C12.5705 16.8984 13.9572 16.0586 17.6291 15.2969C22.0627 14.3789 24.465 12.6211 26.4963 8.77344C27.6095 6.66406 28.6252 5.53125 30.1486 4.73047C31.0861 4.22266 31.3595 4.18359 33.2345 4.18359H35.2853L37.4338 5.19922C39.9923 6.41016 40.8127 6.625 43.0002 6.625C45.1681 6.625 45.9884 6.41016 48.5275 5.23828C51.6134 3.8125 53.7228 3.67578 55.9298 4.78906Z" fill="url(#paint0_linear_261_31)"/>
<path d="M32.4141 19.1054C27.8829 20.5508 25.3829 25.2187 26.7696 29.6523C28.6641 35.7656 36.2227 37.6992 40.793 33.2461C42.004 32.0742 42.9024 30.3164 43.2344 28.5C43.6641 26.1758 42.8438 23.3828 41.1641 21.5273C38.9962 19.1445 35.4219 18.1484 32.4141 19.1054ZM36.1251 22.9336C38.0782 23.5195 39.2891 25.1406 39.2891 27.1718C39.2891 29.789 37.4727 31.625 34.8946 31.625C32.2969 31.625 30.4415 29.789 30.4415 27.2304C30.4415 25.082 31.8087 23.3437 33.918 22.8164C34.8165 22.6015 35.0313 22.6211 36.1251 22.9336Z" fill="url(#paint1_linear_261_31)"/>
<path d="M41.5938 39.5938L26.5938 54.5742V55.4141C26.5938 56.0977 26.7109 56.3711 27.1602 56.8398C27.6289 57.2891 27.9023 57.4062 28.5859 57.4062H29.4258L44.4063 42.4062L59.4063 27.4258V26.5859C59.4063 25.9023 59.2891 25.6289 58.8398 25.1602C58.3711 24.7109 58.0977 24.5938 57.4141 24.5938H56.5742L41.5938 39.5938Z" fill="url(#paint2_linear_261_31)"/>
<path d="M49.1526 46.5468C44.8948 47.6015 42.0433 51.8398 42.7659 56.0781C43.9378 62.8749 51.9261 65.6289 56.9065 60.9609C61.7893 56.3906 59.6409 48.1093 53.1565 46.5859C51.6526 46.2343 50.5003 46.2148 49.1526 46.5468ZM52.8245 50.6289C56.3401 52.1132 56.5354 57.0546 53.1565 58.7734C52.0628 59.3203 51.1057 59.4179 49.9729 59.0859C47.9417 58.4804 46.7112 56.8789 46.7112 54.8086C46.7112 52.9531 47.5511 51.5468 49.1136 50.7851C50.0706 50.2968 51.8479 50.2382 52.8245 50.6289Z" fill="url(#paint3_linear_261_31)"/>
<defs>
<linearGradient id="paint0_linear_261_31" x1="85.4806" y1="-121.206" x2="-37.0682" y2="-63.4147" gradientUnits="userSpaceOnUse">
<stop stop-color="#03B3EA"/>
<stop offset="1" stop-color="#23999A"/>
</linearGradient>
<linearGradient id="paint1_linear_261_31" x1="43.3473" y1="-6.34098" x2="18.5842" y2="4.92073" gradientUnits="userSpaceOnUse">
<stop stop-color="#03B3EA"/>
<stop offset="1" stop-color="#23999A"/>
</linearGradient>
<linearGradient id="paint2_linear_261_31" x1="59.4063" y1="-24.0174" x2="11.471" y2="-2.25216" gradientUnits="userSpaceOnUse">
<stop stop-color="#03B3EA"/>
<stop offset="1" stop-color="#23999A"/>
</linearGradient>
<linearGradient id="paint3_linear_261_31" x1="59.5755" y1="21.1665" x2="34.8302" y2="32.3691" gradientUnits="userSpaceOnUse">
<stop stop-color="#03B3EA"/>
<stop offset="1" stop-color="#23999A"/>
</linearGradient>
</defs>
</svg>
