<svg width="84" height="84" viewBox="0 0 84 84" fill="none" xmlns="http://www.w3.org/2000/svg">
<path d="M37.9427 0.509346C30.8235 1.24491 23.6254 3.95074 17.846 8.0489C14.6673 10.3081 10.3327 14.6427 8.07349 17.8214C5.89306 20.8688 3.44993 25.7813 2.39912 29.1176C-0.385517 37.9444 -0.359247 46.4822 2.50421 55.1251C6.62863 67.6034 16.3749 77.3497 28.9058 81.5004C39.4926 85.0206 50.4999 84.2325 60.5351 79.2674C64.6858 77.2183 68.0484 74.7752 71.4372 71.4126C74.721 68.1289 77.1904 64.7137 79.1869 60.7732C85.1765 48.794 85.1765 35.186 79.1869 23.2068C77.1904 19.2663 74.721 15.8512 71.4372 12.5674C68.0484 9.20479 64.6858 6.76166 60.5351 4.71259C53.3633 1.16611 45.5873 -0.278755 37.9427 0.509346ZM49.6329 6.47269C63.7926 9.75646 74.2744 20.2645 77.5056 34.3716C78.1887 37.2876 78.4514 43.4349 78.031 46.5347C75.982 61.9028 64.8697 74.0134 49.6329 77.481C46.7432 78.1641 40.5697 78.4268 37.4961 78.0064C21.9179 75.9311 9.78105 64.6349 6.39219 49.0567C5.70917 45.9305 5.70917 38.0495 6.39219 34.9233C9.72851 19.5815 21.5238 8.41668 36.8919 5.99982C39.4926 5.60577 47.0585 5.89474 49.6329 6.47269Z" fill="url(#paint0_linear_262_37)"/>
<path d="M38.1791 19.3976C36.7606 19.9755 36.7606 19.8704 36.7606 32.6115V44.4068L37.5224 45.1686L38.2842 45.9305H46.7432H55.2022L55.9641 45.1686C56.9623 44.1441 57.0149 42.6204 56.0954 41.5434L55.4649 40.8078L48.7398 40.729L42.0146 40.6502V30.7988V20.9213L41.1214 20.0281C40.202 19.1086 39.335 18.9247 38.1791 19.3976Z" fill="url(#paint1_linear_262_37)"/>
<defs>
<linearGradient id="paint0_linear_262_37" x1="83.6791" y1="-123.206" x2="-38.0898" y2="-67.9303" gradientUnits="userSpaceOnUse">
<stop stop-color="#03B3EA"/>
<stop offset="1" stop-color="#23999A"/>
</linearGradient>
<linearGradient id="paint1_linear_262_37" x1="56.7505" y1="-20.5352" x2="25.1551" y2="-9.82844" gradientUnits="userSpaceOnUse">
<stop stop-color="#03B3EA"/>
<stop offset="1" stop-color="#23999A"/>
</linearGradient>
</defs>
</svg>
