<svg width="82" height="94" viewBox="0 0 82 94" fill="none" xmlns="http://www.w3.org/2000/svg">
<path d="M46.1152 93.8433C46.8376 94.1371 47.6771 93.9804 48.2433 93.4125L56.619 85.0113L64.9948 93.4125C65.3657 93.8042 65.8733 94 66.381 94C66.6348 94 66.8886 93.9608 67.1229 93.8433C67.8648 93.5496 68.3333 92.825 68.3333 92.0417V78.3333H80.0476C81.1214 78.3333 82 77.4521 82 76.375V11.75C82 8.61667 80.7895 5.67917 78.5638 3.42708C76.3381 1.21417 73.4095 0 70.2857 0H17.5714H16.7124C7.49714 0 0 7.52 0 16.7633V19.5833C0 20.6604 0.878571 21.5417 1.95238 21.5417H11.7143V76.375C11.7143 77.4521 12.5929 78.3333 13.6667 78.3333H44.9048V92.0417C44.9048 92.825 45.3733 93.5496 46.1152 93.8433ZM44.8071 52.8163C44.4362 51.6804 43.5576 50.8188 42.7767 50.0746C42.4057 49.7221 41.781 49.1346 41.7029 49.0367C41.781 48.7821 42.4057 48.1946 42.7767 47.8421C43.5576 47.0979 44.4362 46.2558 44.8071 45.1004C45.1976 43.9254 44.9633 42.6917 44.7681 41.6146C44.69 41.1838 44.5729 40.5179 44.5924 40.185C44.9048 40.0675 45.5881 39.9696 46.0176 39.9108C47.111 39.7738 48.3409 39.5975 49.3171 38.8729C50.2933 38.1483 50.84 37.0321 51.3086 36.0529C51.5038 35.6613 51.7967 35.015 52.0114 34.7604C52.3238 34.8583 52.9095 35.1717 53.2805 35.3675C54.2567 35.8962 55.3695 36.4837 56.619 36.4837C57.8686 36.4837 58.9814 35.8767 59.9576 35.3479C60.3286 35.1521 60.9143 34.8387 61.2267 34.7408C61.4414 34.9954 61.7343 35.6417 61.9295 36.0333C62.3981 37.0125 62.9252 38.1287 63.921 38.8533C64.9167 39.5779 66.1467 39.7346 67.2205 39.8913C67.65 39.95 68.3333 40.0479 68.6457 40.1654C68.6652 40.4983 68.5481 41.1642 68.47 41.595C68.2748 42.6721 68.06 43.9058 68.4309 45.0808C68.8019 46.2167 69.6805 47.0783 70.4614 47.8029C70.7933 48.1162 71.34 48.645 71.4962 48.9192C71.34 49.2129 70.7933 49.7221 70.4614 50.0354C69.6805 50.7796 68.8019 51.6217 68.4309 52.7575C68.0405 53.9325 68.2748 55.1663 68.47 56.2433C68.5481 56.6742 68.6652 57.34 68.6457 57.6729C68.3333 57.7904 67.65 57.8883 67.2205 57.9471C66.1271 58.0842 64.8971 58.2604 63.921 58.985C62.9448 59.7096 62.3981 60.8258 61.9295 61.805C61.7343 62.1967 61.4414 62.8429 61.2267 63.0975C60.9143 62.9996 60.3286 62.6863 59.9576 62.4904C58.9814 61.9617 57.8686 61.3546 56.619 61.3546C55.3695 61.3546 54.2567 61.9617 53.2805 62.4904C52.9095 62.6863 52.3238 62.9996 52.0114 63.0975C51.7967 62.8429 51.5038 62.1967 51.3086 61.805C50.84 60.8258 50.3129 59.7096 49.3171 58.985C48.3214 58.2604 47.0914 58.1038 46.0176 57.9471C45.5881 57.8883 44.9048 57.7904 44.5924 57.6729C44.5729 57.34 44.69 56.6742 44.7681 56.2433C44.9633 55.225 45.1976 53.9913 44.8071 52.8163ZM64.4286 87.3221L58.0052 80.8792C57.2438 80.1154 56.0138 80.1154 55.2524 80.8792L48.8095 87.3221V65.3692C49.2976 66.035 49.9029 66.6225 50.801 66.9162C51.1719 67.0337 51.5233 67.0925 51.8748 67.0925C53.0852 67.0925 54.1786 66.505 55.1157 65.9958C55.5648 65.7412 56.3457 65.33 56.619 65.33C56.8924 65.33 57.6538 65.7412 58.1224 65.9958C59.3329 66.6421 60.8167 67.445 62.4371 66.9162C63.3352 66.6225 63.9405 66.035 64.4286 65.3692V87.3221ZM3.90476 16.7633C3.90476 9.67417 9.64476 3.91667 16.7124 3.91667H17.5714H61.5781C59.7233 5.9925 58.5714 8.73417 58.5714 11.75V17.625H3.90476V16.7633ZM15.619 74.4167V21.5417H60.5238C61.5976 21.5417 62.4762 20.6604 62.4762 19.5833V11.75C62.4762 7.42208 65.9709 3.91667 70.2857 3.91667C72.3748 3.91667 74.3271 4.73917 75.811 6.18833C77.2752 7.69625 78.0952 9.65458 78.0952 11.75V74.4167H68.3333V61.7854C69.5829 61.5896 70.969 61.2763 71.8476 60.0425C72.8629 58.6325 72.5505 56.9483 72.3162 55.5971C72.2186 55.1075 72.0819 54.2654 72.1405 54.0108C72.2381 53.7758 72.8043 53.2275 73.1557 52.8946C74.171 51.935 75.44 50.7208 75.44 48.9388C75.44 47.1567 74.171 45.9425 73.1557 44.9829C72.8043 44.65 72.2381 44.1017 72.1405 43.8862C72.0624 43.6317 72.2186 42.7896 72.2967 42.3C72.5505 40.9488 72.8433 39.245 71.8281 37.8546C70.8129 36.4446 69.0948 36.2096 67.7281 36.0333C67.24 35.9746 66.42 35.8571 66.2052 35.72C66.01 35.5633 65.6586 34.8192 65.4438 34.3883C64.8386 33.135 64.0967 31.5488 62.4176 31.02C60.7971 30.4913 59.2938 31.2942 58.1029 31.9404C57.6538 32.195 56.8729 32.6063 56.5995 32.6063C56.3262 32.6063 55.5648 32.195 55.1157 31.9404C53.9052 31.2942 52.4214 30.4913 50.801 31.02C49.1219 31.5683 48.38 33.135 47.7748 34.3883C47.56 34.8387 47.2086 35.5633 47.0133 35.72C46.7986 35.8571 45.9786 35.9746 45.4905 36.0529C44.1238 36.2292 42.4057 36.4642 41.3905 37.8742C40.3752 39.2842 40.6876 40.9683 40.9219 42.3196C41.0195 42.8092 41.1562 43.6513 41.0976 43.9058C41 44.1408 40.4338 44.6892 40.0824 45.0221C39.0671 46.0013 37.7981 47.1958 37.7981 48.9779C37.7981 50.76 39.0671 51.9742 40.0824 52.9338C40.4338 53.2667 41 53.815 41.0976 54.0304C41.1757 54.285 41.0195 55.1271 40.9414 55.6167C40.6876 56.9679 40.3948 58.6717 41.41 60.0621C42.2886 61.2762 43.6748 61.6092 44.9243 61.805V74.4167H15.619Z" fill="url(#paint0_linear_263_48)"/>
<defs>
<linearGradient id="paint0_linear_263_48" x1="82" y1="233.259" x2="-42.895" y2="183.79" gradientUnits="userSpaceOnUse">
<stop stop-color="#03B3EA"/>
<stop offset="1" stop-color="#23999A"/>
</linearGradient>
</defs>
</svg>
