<svg width="176" height="49" viewBox="0 0 176 49" fill="none" xmlns="http://www.w3.org/2000/svg">
<path d="M10.3905 41.6997C12.4478 45.2842 17.9837 47.6329 20.837 48.5704C21.0128 48.6281 20.9612 48.9584 20.7765 48.9477C11.2469 48.3985 3.95057e-05 43.5502 0 31.4563C-3.22066e-05 21.5969 13.1088 9.95914 5.09168 0.446085C4.99022 0.325695 5.10694 0.137262 5.25522 0.190177C12.7068 2.84927 13.963 7.9929 13.3319 14.4477C12.6443 21.4805 3.74363 30.1186 10.3905 41.6997Z" fill="url(#paint0_linear_205_24)"/>
<path d="M34.1379 19.9789C38.2797 21.9068 41.1577 24.7322 41.9057 25.7995C52.0466 38.8557 39.5184 47.8706 25.6288 48.9358C25.4535 48.9493 25.4012 48.7019 25.5647 48.6371C36.2626 44.3953 43.2669 34.3418 33.954 20.2083C33.8696 20.0802 33.9989 19.9141 34.1379 19.9789Z" fill="url(#paint1_linear_205_24)"/>
<path d="M17.5722 13.3393L16.9991 8.48517H28.4592L27.5042 11.8487L22.691 19.5694C25.7776 20.0586 28.663 21.506 29.7199 22.1685C33.4177 24.37 31.2606 27.7998 29.7199 29.2395C29.1698 29.9427 23.4805 33.7369 20.7046 35.546L20.3226 35.1638L23.5314 32.1443C26.893 29.0866 27.5806 26.9971 27.5042 26.3346C28.4822 22.8182 22.6655 20.767 19.635 20.181L24.5628 11.0078L17.5722 13.3393Z" fill="#23999A"/>
<path fill-rule="evenodd" clip-rule="evenodd" d="M24.5246 38.9478H21.3922V41.6233L18.7181 41.6233L18.7181 44.7575H21.3922V47.3565H24.5246V44.7575H27.1222V41.6233L24.5246 41.6233V38.9478Z" fill="#23999A"/>
<path d="M59.4083 13.3209H57.99V16.8939H55.9512V8.02463H57.99V11.6104H59.459L61.789 8.02463H63.9545L61.0545 12.3072L64.0431 16.8939H61.713L59.4083 13.3209Z" fill="#23999A"/>
<path d="M73.5086 8.02463V16.8939H71.4825V9.69713H68.4433L68.3799 11.547C68.3377 12.8056 68.2364 13.8277 68.076 14.6133C67.9156 15.3904 67.6455 15.9901 67.2656 16.4125C66.8941 16.8264 66.3707 17.0333 65.6953 17.0333C65.4167 17.0333 65.079 16.9868 64.6822 16.8939L64.8089 15.1581C64.9186 15.1919 65.041 15.2088 65.1761 15.2088C65.6657 15.2088 66.0077 14.9216 66.2018 14.3472C66.396 13.7643 66.5184 12.8563 66.5691 11.623L66.6957 8.02463H73.5086Z" fill="#23999A"/>
<path d="M76.1024 8.02463H78.1412V13.8023L82.3708 8.02463H84.2957V16.8939H82.2695V11.1289L78.0399 16.8939H76.1024V8.02463Z" fill="#23999A"/>
<path d="M95.0126 8.02463V16.8939H92.9611V13.2575H88.9341V16.8939H86.8827V8.02463H88.9341V11.5217H92.9611V8.02463H95.0126Z" fill="#23999A"/>
<path d="M97.6134 8.02463H99.6522V13.8023L103.882 8.02463H105.807V16.8939H103.78V11.1289L99.5509 16.8939H97.6134V8.02463Z" fill="#23999A"/>
<path d="M111.825 13.3209H110.407V16.8939H108.368V8.02463H110.407V11.6104H111.876L114.206 8.02463H116.372L113.472 12.3072L116.46 16.8939H114.13L111.825 13.3209Z" fill="#23999A"/>
<path d="M123.63 14.9934H119.515L118.73 16.8939H116.628L120.579 8.02463H122.605L126.568 16.8939H124.416L123.63 14.9934ZM122.985 13.4349L121.579 10.0392L120.173 13.4349H122.985Z" fill="#23999A"/>
<path d="M66.4745 26.1602C66.4745 27.3344 66.0735 28.2593 65.2715 28.9351C64.4779 29.6024 63.334 29.974 61.8397 30.0501V31.013H59.9528V30.0374C58.4501 29.9529 57.2977 29.577 56.4957 28.9097C55.7021 28.234 55.3054 27.3175 55.3054 26.1602C55.3054 24.9946 55.7021 24.0823 56.4957 23.4234C57.2977 22.7561 58.4501 22.376 59.9528 22.2831V21.3708H61.8397V22.2704C63.334 22.3549 64.4779 22.735 65.2715 23.4108C66.0735 24.0865 66.4745 25.003 66.4745 26.1602ZM61.8397 28.4409C62.7346 28.3565 63.4015 28.1284 63.8405 27.7567C64.2795 27.3766 64.499 26.8402 64.499 26.1476C64.499 24.7961 63.6126 24.0443 61.8397 23.8922V28.4409ZM57.2935 26.1602C57.2935 27.4949 58.18 28.2551 59.9528 28.4409V23.8922C59.0495 23.9767 58.3783 24.2048 57.9393 24.5764C57.5088 24.9397 57.2935 25.4676 57.2935 26.1602Z" fill="#23999A"/>
<path d="M68.3891 21.7509H70.4279V27.5286L74.6575 21.7509H76.5824V30.6202H74.5562V24.8552L70.3266 30.6202H68.3891V21.7509Z" fill="#23999A"/>
<path d="M84.2094 25.9955C84.7244 26.1729 85.1254 26.4517 85.4124 26.8318C85.7079 27.2034 85.8556 27.6385 85.8556 28.1368C85.8556 28.6774 85.6783 29.1462 85.3238 29.5432C84.9692 29.9403 84.488 30.2443 83.8801 30.4555C83.2807 30.6667 82.6222 30.7723 81.9047 30.7723C81.2968 30.7723 80.689 30.6963 80.0811 30.5442C79.4817 30.3922 78.9119 30.1599 78.3716 29.8473L79.0047 28.3776C79.3931 28.6141 79.8194 28.7957 80.2837 28.9224C80.7565 29.0407 81.2166 29.0998 81.664 29.0998C82.2719 29.0998 82.7742 28.99 83.171 28.7703C83.5762 28.5507 83.7788 28.2424 83.7788 27.8454C83.7788 27.516 83.6395 27.2668 83.3609 27.0979C83.0908 26.9289 82.7193 26.8444 82.2466 26.8444H80.0811V25.2987H82.0946C82.5083 25.2987 82.8291 25.2142 83.057 25.0452C83.2934 24.8763 83.4116 24.644 83.4116 24.3484C83.4116 24.002 83.2428 23.7317 82.9051 23.5375C82.5758 23.3432 82.1495 23.246 81.6261 23.246C81.2377 23.246 80.8367 23.3009 80.423 23.4108C80.0094 23.5121 79.6168 23.6684 79.2453 23.8796L78.6248 22.2831C79.5619 21.8016 80.575 21.5609 81.664 21.5609C82.3563 21.5609 82.9937 21.6622 83.5762 21.865C84.1587 22.0677 84.6231 22.3633 84.9692 22.7519C85.3153 23.1405 85.4884 23.5924 85.4884 24.1076C85.4884 24.53 85.3744 24.9059 85.1465 25.2353C84.9185 25.5647 84.6062 25.8181 84.2094 25.9955Z" fill="#23999A"/>
<path d="M87.8596 21.7509H89.8984V27.5286L94.128 21.7509H96.0528V30.6202H94.0267V24.8552L89.7971 30.6202H87.8596V21.7509Z" fill="#23999A"/>
<path d="M102.869 30.7723C101.949 30.7723 101.118 30.5738 100.375 30.1768C99.6403 29.7798 99.062 29.2349 98.6398 28.5423C98.2262 27.8412 98.0193 27.0556 98.0193 26.1856C98.0193 25.3155 98.2262 24.5342 98.6398 23.8416C99.062 23.1405 99.6403 22.5914 100.375 22.1944C101.118 21.7974 101.949 21.5989 102.869 21.5989C103.79 21.5989 104.617 21.7974 105.351 22.1944C106.086 22.5914 106.664 23.1405 107.086 23.8416C107.508 24.5342 107.72 25.3155 107.72 26.1856C107.72 27.0556 107.508 27.8412 107.086 28.5423C106.664 29.2349 106.086 29.7798 105.351 30.1768C104.617 30.5738 103.79 30.7723 102.869 30.7723ZM102.869 29.0238C103.393 29.0238 103.866 28.9055 104.288 28.669C104.71 28.424 105.039 28.0861 105.275 27.6554C105.52 27.2246 105.643 26.7346 105.643 26.1856C105.643 25.6365 105.52 25.1466 105.275 24.7158C105.039 24.285 104.71 23.9514 104.288 23.7148C103.866 23.4699 103.393 23.3474 102.869 23.3474C102.346 23.3474 101.873 23.4699 101.451 23.7148C101.029 23.9514 100.696 24.285 100.451 24.7158C100.214 25.1466 100.096 25.6365 100.096 26.1856C100.096 26.7346 100.214 27.2246 100.451 27.6554C100.696 28.0861 101.029 28.424 101.451 28.669C101.873 28.9055 102.346 29.0238 102.869 29.0238Z" fill="#23999A"/>
<path d="M116.331 23.4234H113.494V30.6202H111.468V23.4234H108.644V21.7509H116.331V23.4234Z" fill="#23999A"/>
<path d="M124.863 28.9731V30.6202H117.999V21.7509H124.698V23.3981H120.038V25.324H124.153V26.9205H120.038V28.9731H124.863Z" fill="#23999A"/>
<path d="M130.737 21.7509C131.522 21.7509 132.201 21.8819 132.775 22.1437C133.358 22.4056 133.805 22.7772 134.118 23.2587C134.43 23.7402 134.586 24.3104 134.586 24.9692C134.586 25.6196 134.43 26.1898 134.118 26.6797C133.805 27.1612 133.358 27.5329 132.775 27.7947C132.201 28.0481 131.522 28.1748 130.737 28.1748H128.951V30.6202H126.9V21.7509H130.737ZM130.623 26.5023C131.239 26.5023 131.707 26.3714 132.028 26.1096C132.349 25.8393 132.509 25.4591 132.509 24.9692C132.509 24.4708 132.349 24.0907 132.028 23.8289C131.707 23.5586 131.239 23.4234 130.623 23.4234H128.951V26.5023H130.623Z" fill="#23999A"/>
<path d="M141.877 28.7197H137.761L136.976 30.6202H134.874L138.825 21.7509H140.851L144.815 30.6202H142.662L141.877 28.7197ZM141.231 27.1612L139.825 23.7655L138.42 27.1612H141.231Z" fill="#23999A"/>
<path d="M154.449 21.7509V30.6202H152.41V23.4234H148.409V30.6202H146.37V21.7509H154.449Z" fill="#23999A"/>
<path d="M157.027 21.7509H159.065V27.5286L163.295 21.7509H165.22V30.6202H163.194V24.8552L158.964 30.6202H157.027V21.7509Z" fill="#23999A"/>
<path d="M167.807 21.7509H169.846V27.5286L174.075 21.7509H176V30.6202H173.974V24.8552L169.744 30.6202H167.807V21.7509Z" fill="#23999A"/>
<path d="M60.816 39.7429H56.8798L56.8904 46.4582H56.12V39.0672H60.816V39.7429Z" fill="#449CB8"/>
<path d="M63.8897 40.8621C64.6143 40.8621 65.1701 41.0452 65.557 41.4112C65.944 41.7702 66.1374 42.3052 66.1374 43.0161V46.4582H65.4199V45.5924C65.251 45.881 65.0013 46.1063 64.6706 46.2682C64.347 46.4301 63.96 46.511 63.5098 46.511C62.8907 46.511 62.3982 46.3632 62.0324 46.0676C61.6666 45.7719 61.4836 45.3813 61.4836 44.8956C61.4836 44.4239 61.6525 44.0438 61.9902 43.7552C62.3349 43.4666 62.8801 43.3223 63.6259 43.3223H65.3882V42.9844C65.3882 42.5058 65.2545 42.1433 64.9872 41.8969C64.7198 41.6435 64.3294 41.5168 63.8158 41.5168C63.4641 41.5168 63.1264 41.5766 62.8027 41.6963C62.4791 41.8089 62.2012 41.9673 61.9691 42.1714L61.6314 41.6118C61.9128 41.3725 62.2505 41.1895 62.6445 41.0628C63.0384 40.929 63.4535 40.8621 63.8897 40.8621ZM63.6259 45.9198C64.048 45.9198 64.4103 45.8247 64.7128 45.6347C65.0153 45.4376 65.2405 45.156 65.3882 44.79V43.8819H63.647C62.6972 43.8819 62.2223 44.2128 62.2223 44.8744C62.2223 45.1982 62.3455 45.4552 62.5917 45.6452C62.8379 45.8282 63.1826 45.9198 63.6259 45.9198Z" fill="#449CB8"/>
<path d="M72.6697 40.9044V46.4582H71.9205V41.5696H69.2612L69.1873 42.9422C69.131 44.0966 68.9973 44.9835 68.7863 45.603C68.5752 46.2224 68.1988 46.5322 67.6571 46.5322C67.5094 46.5322 67.33 46.504 67.1189 46.4477L67.1717 45.8036C67.2983 45.8318 67.3863 45.8458 67.4355 45.8458C67.724 45.8458 67.9421 45.7121 68.0898 45.4446C68.2375 45.1771 68.336 44.8463 68.3853 44.4521C68.4345 44.0579 68.4767 43.537 68.5119 42.8894L68.6069 40.9044H72.6697Z" fill="#449CB8"/>
<path d="M74.7997 40.9044H75.5489V45.3179L79.253 40.9044H79.9178V46.4582H79.1686V42.0447L75.4751 46.4582H74.7997V40.9044Z" fill="#449CB8"/>
<path d="M82.0651 40.9044H82.8143V43.3645H86.3073V40.9044H87.0566V46.4582H86.3073V44.0086H82.8143V46.4582H82.0651V40.9044Z" fill="#449CB8"/>
<path d="M91.5183 42.8683C92.2148 42.8753 92.746 43.0302 93.1118 43.3329C93.4777 43.6356 93.6606 44.072 93.6606 44.6421C93.6606 45.2334 93.4636 45.6875 93.0696 46.0042C92.6756 46.321 92.1128 46.4758 91.3812 46.4688L89.1862 46.4582V40.9044H89.9354V42.8472L91.5183 42.8683ZM94.5892 40.9044H95.3385V46.4582H94.5892V40.9044ZM91.3389 45.8986C91.8525 45.9057 92.2395 45.8036 92.4998 45.5924C92.7671 45.3742 92.9008 45.0575 92.9008 44.6421C92.9008 44.2339 92.7706 43.9312 92.5103 43.7341C92.25 43.537 91.8596 43.4349 91.3389 43.4279L89.9354 43.4068V45.8775L91.3389 45.8986Z" fill="#449CB8"/>
<path d="M107.199 45.7825V48.116H106.47V46.4582H100.023L100.012 48.116H99.2839L99.2945 45.7825H99.6638C100.149 45.7543 100.487 45.3707 100.677 44.6316C100.867 43.8854 100.983 42.8296 101.025 41.464L101.11 39.0672H106.091V45.7825H107.199ZM101.722 41.5379C101.686 42.6642 101.599 43.5933 101.458 44.3254C101.324 45.0504 101.095 45.5361 100.772 45.7825H105.32V39.7429H101.785L101.722 41.5379Z" fill="#449CB8"/>
<path d="M113.312 43.9136H108.669C108.711 44.4908 108.932 44.9589 109.333 45.3179C109.734 45.6699 110.241 45.8458 110.853 45.8458C111.198 45.8458 111.514 45.786 111.803 45.6663C112.091 45.5396 112.341 45.3566 112.552 45.1173L112.974 45.603C112.728 45.8986 112.418 46.1239 112.045 46.2787C111.68 46.4336 111.275 46.511 110.832 46.511C110.262 46.511 109.755 46.3914 109.312 46.152C108.876 45.9057 108.535 45.5678 108.289 45.1384C108.042 44.709 107.919 44.2233 107.919 43.6813C107.919 43.1393 108.035 42.6536 108.268 42.2242C108.507 41.7948 108.83 41.4605 109.238 41.2211C109.653 40.9818 110.118 40.8621 110.631 40.8621C111.145 40.8621 111.606 40.9818 112.014 41.2211C112.422 41.4605 112.742 41.7948 112.974 42.2242C113.206 42.6466 113.322 43.1323 113.322 43.6813L113.312 43.9136ZM110.631 41.5062C110.097 41.5062 109.646 41.6787 109.281 42.0236C108.922 42.3615 108.718 42.8049 108.669 43.354H112.605C112.555 42.8049 112.348 42.3615 111.982 42.0236C111.623 41.6787 111.173 41.5062 110.631 41.5062ZM109.692 39.7957C109.566 39.7957 109.456 39.7535 109.365 39.669C109.281 39.5845 109.238 39.4754 109.238 39.3417C109.238 39.215 109.281 39.1094 109.365 39.0249C109.456 38.9334 109.566 38.8877 109.692 38.8877C109.812 38.8877 109.917 38.9334 110.009 39.0249C110.1 39.1094 110.146 39.215 110.146 39.3417C110.146 39.4684 110.1 39.5775 110.009 39.669C109.924 39.7535 109.819 39.7957 109.692 39.7957ZM111.571 39.7957C111.444 39.7957 111.335 39.7535 111.243 39.669C111.159 39.5775 111.117 39.4684 111.117 39.3417C111.117 39.215 111.163 39.1094 111.254 39.0249C111.345 38.9334 111.451 38.8877 111.571 38.8877C111.697 38.8877 111.803 38.9334 111.887 39.0249C111.979 39.1094 112.024 39.215 112.024 39.3417C112.024 39.4754 111.979 39.5845 111.887 39.669C111.803 39.7535 111.697 39.7957 111.571 39.7957Z" fill="#449CB8"/>
<path d="M121.186 40.9044V46.4582H120.5V42.0658L118.252 45.7825H117.915L115.667 42.0553V46.4582H114.981V40.9044H115.741L118.094 44.9061L120.489 40.9044H121.186Z" fill="#449CB8"/>
<path d="M130.979 40.9044V46.4582H123.318V40.9044H124.067V45.8036H126.79V40.9044H127.539V45.8036H130.23V40.9044H130.979Z" fill="#449CB8"/>
<path d="M133.119 40.9044H133.868V45.3179L137.572 40.9044H138.237V46.4582H137.487V42.0447L133.794 46.4582H133.119V40.9044Z" fill="#449CB8"/>
<path d="M140.384 40.9044H141.133V43.3645H144.626V40.9044H145.375V46.4582H144.626V44.0086H141.133V46.4582H140.384V40.9044Z" fill="#449CB8"/>
<path d="M149.795 46.511C149.26 46.511 148.778 46.3914 148.349 46.152C147.92 45.9057 147.582 45.5678 147.336 45.1384C147.09 44.709 146.967 44.2233 146.967 43.6813C146.967 43.1393 147.09 42.6536 147.336 42.2242C147.582 41.7948 147.92 41.4605 148.349 41.2211C148.778 40.9818 149.26 40.8621 149.795 40.8621C150.33 40.8621 150.812 40.9818 151.241 41.2211C151.67 41.4605 152.004 41.7948 152.243 42.2242C152.49 42.6536 152.613 43.1393 152.613 43.6813C152.613 44.2233 152.49 44.709 152.243 45.1384C152.004 45.5678 151.67 45.9057 151.241 46.152C150.812 46.3914 150.33 46.511 149.795 46.511ZM149.795 45.8458C150.189 45.8458 150.541 45.7579 150.85 45.5819C151.167 45.3989 151.413 45.1419 151.589 44.8111C151.765 44.4802 151.853 44.1037 151.853 43.6813C151.853 43.259 151.765 42.8824 151.589 42.5515C151.413 42.2207 151.167 41.9673 150.85 41.7913C150.541 41.6083 150.189 41.5168 149.795 41.5168C149.401 41.5168 149.046 41.6083 148.729 41.7913C148.42 41.9673 148.173 42.2207 147.99 42.5515C147.815 42.8824 147.727 43.259 147.727 43.6813C147.727 44.1037 147.815 44.4802 147.99 44.8111C148.173 45.1419 148.42 45.3989 148.729 45.5819C149.046 45.7579 149.401 45.8458 149.795 45.8458Z" fill="#449CB8"/>
<path d="M154.214 40.9044H154.963V45.3179L158.667 40.9044H159.332V46.4582H158.583V42.0447L154.889 46.4582H154.214V40.9044ZM156.736 40.1019C156.258 40.1019 155.878 39.9822 155.596 39.7429C155.315 39.5036 155.171 39.1657 155.164 38.7293H155.702C155.709 39.0038 155.807 39.2255 155.997 39.3945C156.187 39.5564 156.434 39.6373 156.736 39.6373C157.039 39.6373 157.285 39.5564 157.475 39.3945C157.672 39.2255 157.774 39.0038 157.781 38.7293H158.319C158.312 39.1657 158.164 39.5036 157.876 39.7429C157.594 39.9822 157.214 40.1019 156.736 40.1019Z" fill="#449CB8"/>
<defs>
<linearGradient id="paint0_linear_205_24" x1="11.1736" y1="0" x2="11.1736" y2="49" gradientUnits="userSpaceOnUse">
<stop stop-color="#84D7F1"/>
<stop offset="1" stop-color="#23999A"/>
</linearGradient>
<linearGradient id="paint1_linear_205_24" x1="35.0978" y1="19.7605" x2="35.0978" y2="49" gradientUnits="userSpaceOnUse">
<stop stop-color="#84D7F1"/>
<stop offset="1" stop-color="#23999A"/>
</linearGradient>
</defs>
</svg>
