<svg width="110" height="110" viewBox="0 0 110 110" fill="none" xmlns="http://www.w3.org/2000/svg">
<circle cx="55" cy="55" r="55" fill="url(#paint0_linear_279_30)"/>
<path d="M70.2645 75C65.9032 75 62.6043 73.2222 60.3677 69.6667C58.4667 66.6667 57.5161 63 57.5161 58.6667C57.5161 53.1111 58.914 48.1111 61.7097 43.6667C64.6172 39.2222 68.9785 35.6667 74.7935 33L76.3032 36C72.8366 37.4444 69.8172 39.7222 67.2452 42.8333C64.7849 45.9444 63.5548 49.1111 63.5548 52.3333C63.5548 53.6667 63.7226 54.8333 64.0581 55.8333C65.8473 54.3889 67.9161 53.6667 70.2645 53.6667C73.2839 53.6667 75.8 54.6667 77.8129 56.6667C79.9376 58.5556 81 61.1111 81 64.3333C81 67.3333 79.9376 69.8889 77.8129 72C75.8 74 73.2839 75 70.2645 75ZM41.7484 75C37.3871 75 34.0882 73.2222 31.8516 69.6667C29.9505 66.6667 29 63 29 58.6667C29 53.1111 30.3978 48.1111 33.1935 43.6667C36.1011 39.2222 40.4624 35.6667 46.2774 33L47.7871 36C44.3204 37.4444 41.3011 39.7222 38.729 42.8333C36.2688 45.9444 35.0387 49.1111 35.0387 52.3333C35.0387 53.6667 35.2065 54.8333 35.5419 55.8333C37.3312 54.3889 39.4 53.6667 41.7484 53.6667C44.7677 53.6667 47.2839 54.6667 49.2968 56.6667C51.4215 58.5556 52.4839 61.1111 52.4839 64.3333C52.4839 67.3333 51.4215 69.8889 49.2968 72C47.2839 74 44.7677 75 41.7484 75Z" fill="white"/>
<defs>
<linearGradient id="paint0_linear_279_30" x1="110" y1="272.963" x2="-50.6972" y2="199.998" gradientUnits="userSpaceOnUse">
<stop stop-color="#03B3EA"/>
<stop offset="1" stop-color="#23999A"/>
</linearGradient>
</defs>
</svg>
